<svg width="42" height="28" viewBox="0 0 42 28" fill="none" xmlns="http://www.w3.org/2000/svg">
    <path fill-rule="evenodd" clip-rule="evenodd" d="M22.0847 12.7669H13.9598V16.0625H17.6832C17.3865 17.5152 15.8726 18.8173 13.5902 18.8173C10.8904 18.8173 8.69369 16.5986 8.69369 13.8719C8.69369 11.1444 10.8904 9.00805 13.5902 9.00805C14.9147 9.00805 16.1563 9.45539 17.0877 10.4175L17.2945 10.6314L17.5408 10.4656L20.4878 8.48056L20.8198 8.25699L20.5628 7.94866C18.8259 5.86283 16.284 4.66663 13.5902 4.66663C8.56585 4.66663 4.47786 8.79613 4.47786 13.8719C4.47786 18.9473 8.56585 23.0759 13.5902 23.0759C18.0626 23.0759 21.2705 20.4753 21.9615 16.2889C22.1319 15.2541 22.1776 14.7291 22.1473 13.8719C22.1295 13.3611 22.1045 12.9966 22.0847 12.7669ZM41.2214 12.7692H33.0963V16.0646H36.8197C36.5234 17.5174 35.0091 18.8196 32.7265 18.8196C30.0269 18.8196 27.8302 16.6009 27.8302 13.8741C27.8302 11.1465 30.0269 9.01018 32.7265 9.01018C34.0507 9.01018 35.2924 9.45774 36.2244 10.4196L36.4312 10.6335L36.6775 10.4677L39.6243 8.48291L39.9565 8.25912L39.6995 7.9508C37.962 5.86518 35.4204 4.66898 32.7265 4.66898C27.7019 4.66898 23.6145 8.79826 23.6145 13.8741C23.6145 18.9496 27.7019 23.0783 32.7265 23.0783C37.1993 23.0783 40.407 20.4777 41.0979 16.2911C41.2686 15.2565 41.314 14.7312 41.2838 13.8743C41.266 13.3632 41.241 12.9989 41.2214 12.7692ZM0 21.2063C0 20.1764 0.829426 19.3386 1.84865 19.3386C2.86831 19.3386 3.69796 20.1764 3.69796 21.2063C3.69796 22.2359 2.86831 23.0737 1.84865 23.0737C0.829426 23.0737 0 22.2359 0 21.2063Z" fill="#907659"/>
</svg>
